<svg id="Layer_1" data-name="Layer 1" xmlns="http://www.w3.org/2000/svg" xmlns:xlink="http://www.w3.org/1999/xlink" viewBox="0 0 208.45 35.05"><defs><style>.cls-1{fill:none;}.cls-2{clip-path:url(#clip-path);}.cls-3{fill:#231f20;}</style><clipPath id="clip-path" transform="translate(0 0)"><rect class="cls-1" width="208.46" height="35.05"/></clipPath></defs><title>yesca-title</title><g class="cls-2"><path class="cls-3" d="M197.88,24.27c-3.78,2.53-11.54,4.35-18.46,4.35-4,0-6.85-.7-6.85-1.66,0-1.82,8.3-3.56,19.71-4.14l4.14-.21c2.49-.13,3.07.58,1.46,1.66M195.6,34h12.86l-6.64-8.3v-5.6c0-6.51-8-11.2-19.08-11.2a45.92,45.92,0,0,0-12.28,1.87v8.5c3.85-1.58,10.95-2.7,16.84-2.7,11.41,0,14.1,3.53,9.95,3.53h-6.63c-15.52,0-26.76,3.82-26.76,9.13,0,3.36,4.36,5.8,10.37,5.8,7.55,0,17.55-3.56,23.85-8.5h.42ZM141,26.76c-6.59,0-11.4-1.58-11.4-3.74,0-3.36,7-5.8,16.8-5.8a52.8,52.8,0,0,1,12.44,1.45V10a56.25,56.25,0,0,0-9.33-1c-13.48,0-23.23,6-23.23,14.31,0,6.85,7.42,11.82,17.63,11.82a44.48,44.48,0,0,0,15.14-2.9V23.44A54.48,54.48,0,0,1,141,26.76m-42.1-11a96,96,0,0,1,21.16,3.11V10.58a79.13,79.13,0,0,0-15.56-1.66c-9.5,0-16.39,3.15-16.39,7.47,0,8.09,28.59,7.21,28.59,10.12,0,.95-2.87,1.66-6.81,1.66a77.15,77.15,0,0,1-21.78-3.74v8.34c3.69,1.33,10.83,2.28,17,2.28,10.37,0,17.88-3.32,17.88-7.88,0-8.5-29.66-7.42-29.66-9.91,0-.83,2.36-1.45,5.6-1.45M68.45,14.73c8.71,0,19.66,2.28-10.79,5.39L50,20.91c1.2-3.61,8.63-6.18,18.5-6.18M84,22.82l-.83-4.15C82,13,75.67,8.92,68.08,8.92c-13,0-22.45,6.18-22.45,14.73,0,6.59,8.3,11.4,19.79,11.4A46,46,0,0,0,78.57,33V24.89C75,26.34,67.91,27.38,61.69,27.38s-11-1.87-11.78-4.56ZM17.42,34H43.14l-8.29-8.3C28.46,19.33,37.54,9.25,56.42,1.66L60.57,0H39L30.49,15.35h-.41L21.57,0H0L4.15,1.66c18.92,7.55,28,17.67,21.57,24.06Z" transform="translate(0 0)"/></g></svg>
